<svg width="76" height="56" viewBox="0 0 76 56" fill="none" xmlns="http://www.w3.org/2000/svg">
<g filter="url(#filter0_d_4168_304)">
<g clip-path="url(#clip0_4168_304)">
<path d="M-65.2322 0.355919L-24.8002 0.57849C-23.4506 0.58592 -22.1964 1.30661 -21.267 2.53449C-20.3373 3.76283 -19.7539 5.47785 -19.7644 7.38659L-19.8146 16.5095C-19.8262 18.6186 -19.1816 20.551 -18.1083 21.9692C-17.0345 23.3877 -15.5098 24.3136 -13.7833 24.3231C-12.0569 24.3325 -10.5229 23.4235 -9.43361 22.0169C-8.34471 20.6107 -7.67892 18.6856 -7.66731 16.5764L-7.61709 7.45346C-7.60658 5.54472 -7.00333 3.83623 -6.06018 2.6182C-5.18441 1.48737 -4.03363 0.797912 -2.79279 0.711356L-1.93793 2.24343L-1.79578 2.49812L-1.50379 2.49973C-0.037225 2.5078 1.1188 2.86477 1.90612 3.61813C2.68831 4.36673 3.19216 5.58905 3.18157 7.5129L3.13135 16.6358C3.11974 18.7449 3.76344 20.6773 4.83668 22.0955C5.91044 23.5141 7.43512 24.4399 9.16168 24.4494C10.8882 24.4589 12.4221 23.5499 13.5114 22.1432C14.6003 20.737 15.266 18.8119 15.2777 16.7027L15.3279 7.57977C15.3383 5.68318 15.9464 4.43928 16.8456 3.66326C17.7567 2.87694 19.0372 2.51026 20.4974 2.5183L20.4994 2.51831L171.757 2.76111L171.496 50.1383L20.1704 49.5094L19.9185 49.5002C18.6655 49.4102 17.5093 48.7042 16.6381 47.5534C15.7085 46.3252 15.1241 44.6109 15.1345 42.7023L15.1848 33.5784C15.1963 31.4692 14.5518 29.5369 13.4785 28.1187C12.4047 26.7001 10.8809 25.7744 9.15443 25.7648C7.42786 25.7553 5.89309 26.6642 4.80378 28.071C3.71501 29.4772 3.05011 31.4025 3.03846 33.5115L2.98823 42.6354C2.97738 44.5988 2.63107 46.4054 1.94764 47.6991C1.27913 48.9645 0.321066 49.6929 -0.959897 49.6997L-2.68967 49.3914L-2.73162 49.3833L-2.77459 49.3831C-4.12408 49.3756 -5.37754 48.6547 -6.30684 47.4271C-7.23646 46.1989 -7.82087 44.4846 -7.81043 42.576L-7.76021 33.4521C-7.74864 31.3429 -8.39316 29.4106 -9.46651 27.9924C-10.5402 26.5739 -12.0641 25.6481 -13.7905 25.6385C-15.5171 25.629 -17.0519 26.5379 -18.1412 27.9447C-19.23 29.3509 -19.8958 31.2761 -19.9075 33.3852L-19.9577 42.5091C-19.9683 44.4177 -20.5706 46.1255 -21.5136 47.3434C-22.4565 48.5609 -23.7185 49.2678 -25.0682 49.2604L-65.5002 49.0378L-65.2322 0.355919Z" fill="#FBB428" stroke="#2A9D8F"/>
</g>
<mask id="path-2-inside-1_4168_304" fill="white">
<path d="M22 2H71.5V50H22V2Z"/>
</mask>
<path d="M22 2H71.5V50H22V2Z" fill="#FBB428"/>
<path d="M71.5 2H72.5V1H71.5V2ZM71.5 50V51H72.5V50H71.5ZM22 2V3H71.5V2V1H22V2ZM71.5 2H70.5V50H71.5H72.5V2H71.5ZM71.5 50V49H22V50V51H71.5V50Z" fill="#2A9D8F" mask="url(#path-2-inside-1_4168_304)"/>
<g filter="url(#filter1_d_4168_304)">
<path d="M49.6707 35.5123L40.1583 26L49.6707 16.4876C49.8643 16.294 49.8643 15.9801 49.6707 15.7865L48.6293 14.7452C48.4357 14.5516 48.1218 14.5516 47.9282 14.7452L37.5446 25.1288C37.0639 25.6101 37.0639 26.3899 37.5446 26.8712L47.9282 37.2548C48.1218 37.4484 48.4357 37.4484 48.6293 37.2548L49.6707 36.2134C49.8643 36.0198 49.8643 35.7059 49.6707 35.5123Z" fill="#1D6861"/>
</g>
</g>
<defs>
<filter id="filter0_d_4168_304" x="-4" y="0" width="79.5" height="56" filterUnits="userSpaceOnUse" color-interpolation-filters="sRGB">
<feFlood flood-opacity="0" result="BackgroundImageFix"/>
<feColorMatrix in="SourceAlpha" type="matrix" values="0 0 0 0 0 0 0 0 0 0 0 0 0 0 0 0 0 0 127 0" result="hardAlpha"/>
<feOffset dy="2"/>
<feGaussianBlur stdDeviation="2"/>
<feComposite in2="hardAlpha" operator="out"/>
<feColorMatrix type="matrix" values="0 0 0 0 0 0 0 0 0 0 0 0 0 0 0 0 0 0 0.1 0"/>
<feBlend mode="normal" in2="BackgroundImageFix" result="effect1_dropShadow_4168_304"/>
<feBlend mode="normal" in="SourceGraphic" in2="effect1_dropShadow_4168_304" result="shape"/>
</filter>
<filter id="filter1_d_4168_304" x="29.5" y="13" width="28" height="28" filterUnits="userSpaceOnUse" color-interpolation-filters="sRGB">
<feFlood flood-opacity="0" result="BackgroundImageFix"/>
<feColorMatrix in="SourceAlpha" type="matrix" values="0 0 0 0 0 0 0 0 0 0 0 0 0 0 0 0 0 0 127 0" result="hardAlpha"/>
<feOffset dy="1"/>
<feGaussianBlur stdDeviation="1"/>
<feComposite in2="hardAlpha" operator="out"/>
<feColorMatrix type="matrix" values="0 0 0 0 0 0 0 0 0 0 0 0 0 0 0 0 0 0 0.08 0"/>
<feBlend mode="normal" in2="BackgroundImageFix" result="effect1_dropShadow_4168_304"/>
<feBlend mode="normal" in="SourceGraphic" in2="effect1_dropShadow_4168_304" result="shape"/>
</filter>
<clipPath id="clip0_4168_304">
<rect width="22" height="48" fill="white" transform="translate(0 2)"/>
</clipPath>
</defs>
</svg>
