<svg width="615" height="1407" viewBox="0 0 615 1407" fill="none" xmlns="http://www.w3.org/2000/svg">
<g opacity="0.7">
<g opacity="0.7">
<path d="M367.5 861C367.5 867.529 365.606 873.521 362.585 877.694C359.585 881.836 356.044 883.5 353 883.5C349.956 883.5 346.415 881.836 343.415 877.694C340.394 873.521 338.5 867.529 338.5 861" stroke="#2A9D8F" stroke-width="13"/>
<path d="M382.5 860C382.5 870.922 379.091 881.168 373.337 888.521C367.612 895.836 360.238 899.5 353 899.5C345.762 899.5 338.388 895.836 332.663 888.521C326.909 881.168 323.5 870.922 323.5 860" stroke="#1D4B45" stroke-width="13"/>
<path d="M397.5 859C397.5 874.377 392.543 888.917 384.01 899.458C375.507 909.962 364.305 915.5 353 915.5C341.695 915.5 330.493 909.962 321.99 899.458C313.457 888.917 308.5 874.377 308.5 859" stroke="#F96F24" stroke-width="13"/>
<path d="M412.5 857.5C412.5 877.498 405.976 896.478 394.642 910.301C383.339 924.088 368.317 931.5 353 931.5C337.683 931.5 322.661 924.088 311.357 910.301C300.024 896.478 293.5 877.498 293.5 857.5" stroke="#F4392A" stroke-width="13"/>
<path d="M427.5 856C427.5 880.343 419.415 903.504 405.286 920.423C391.187 937.308 372.342 946.5 353 946.5C333.658 946.5 314.813 937.308 300.714 920.423C286.585 903.504 278.5 880.343 278.5 856" stroke="#FBB428" stroke-width="13"/>
<rect x="332" y="865.769" width="265.467" height="13" transform="rotate(-90 332 865.769)" fill="#2A9D8F"/>
<rect x="361" y="865.769" width="862.769" height="13" transform="rotate(-90 361 865.769)" fill="#2A9D8F"/>
<rect x="376" y="865.769" width="862.769" height="13" transform="rotate(-90 376 865.769)" fill="#1D4B45"/>
<rect x="272" y="865.769" width="265.467" height="13" transform="rotate(-90 272 865.769)" fill="#FBB428"/>
<rect x="391" y="865.769" width="862.769" height="13" transform="rotate(-90 391 865.769)" fill="#F96F24"/>
<rect x="406" y="865.769" width="862.769" height="13" transform="rotate(-90 406 865.769)" fill="#F4392A"/>
<rect x="421" y="865.769" width="862.769" height="13" transform="rotate(-90 421 865.769)" fill="#FBB428"/>
<rect x="317" y="865.769" width="265.467" height="13" transform="rotate(-90 317 865.769)" fill="#1D4B45"/>
<rect x="287" y="865.769" width="265.467" height="13" transform="rotate(-90 287 865.769)" fill="#F4392A"/>
<rect x="302" y="865.769" width="265.467" height="13" transform="rotate(-90 302 865.769)" fill="#F96F24"/>
<path d="M249.5 503.035C249.5 499.026 251.061 495.208 253.796 492.414C256.526 489.624 260.2 488.083 264 488.083C267.8 488.083 271.474 489.624 274.204 492.414C276.939 495.208 278.5 499.026 278.5 503.035" stroke="#FBB428" stroke-width="13"/>
<path d="M234.5 503.036C234.5 494.963 237.641 487.247 243.189 481.579C248.733 475.917 256.221 472.761 264 472.761C271.779 472.761 279.267 475.917 284.811 481.579C290.359 487.247 293.5 494.963 293.5 503.036" stroke="#F4392A" stroke-width="13"/>
<path d="M219.5 503.036C219.5 490.899 224.221 479.286 232.582 470.744C240.939 462.208 252.243 457.438 264 457.438C275.757 457.438 287.061 462.208 295.418 470.744C303.779 479.286 308.5 490.899 308.5 503.036" stroke="#F96F24" stroke-width="13"/>
<path d="M204.5 503.036C204.5 486.835 210.802 471.324 221.976 459.909C233.145 448.499 248.265 442.115 264 442.115C279.735 442.115 294.855 448.499 306.024 459.909C317.198 471.324 323.5 486.835 323.5 503.036" stroke="#1D4B45" stroke-width="13"/>
<path d="M189.5 503.036C189.5 482.771 197.382 463.363 211.369 449.074C225.352 434.791 244.287 426.792 264 426.792C283.713 426.792 302.648 434.791 316.631 449.074C330.618 463.363 338.5 482.771 338.5 503.036" stroke="#2A9D8F" stroke-width="13"/>
<rect x="285" y="502.014" width="177.745" height="13" transform="rotate(90 285 502.014)" fill="#FBB428"/>
<rect x="256" y="502.014" width="900.986" height="13" transform="rotate(90 256 502.014)" fill="#FBB428"/>
<rect x="241" y="502.014" width="900.986" height="13" transform="rotate(90 241 502.014)" fill="#F4392A"/>
<rect x="345" y="502.014" width="177.745" height="13" transform="rotate(90 345 502.014)" fill="#2A9D8F"/>
<rect x="226" y="502.014" width="900.986" height="13" transform="rotate(90 226 502.014)" fill="#F96F24"/>
<rect x="211" y="502.014" width="900.986" height="13" transform="rotate(90 211 502.014)" fill="#1D4B45"/>
<rect x="196" y="502.014" width="900.986" height="13" transform="rotate(90 196 502.014)" fill="#2A9D8F"/>
<rect x="300" y="502.014" width="177.745" height="13" transform="rotate(90 300 502.014)" fill="#F4392A"/>
<rect x="330" y="502.014" width="177.745" height="13" transform="rotate(90 330 502.014)" fill="#1D4B45"/>
<rect x="315" y="502.014" width="177.745" height="13" transform="rotate(90 315 502.014)" fill="#F96F24"/>
</g>
</g>
</svg>
